<?xml version="1.0" standalone="no"?>
<svg version="1.0" xmlns="http://www.w3.org/2000/svg"
 width="128.000000pt" height="128.000000pt" viewBox="0 0 128.000000 128.000000">

<g transform="translate(0.000000,128.000000) scale(0.100000,-0.100000)"
fill="none" stroke="white">
<path d="M0 640 l0 -640 640 0 640 0 0 640 0 640 -640 0 -640 0 0 -640z m987
467 c58 -31 67 -57 73 -196 l5 -126 31 -3 c17 -2 41 -13 53 -26 21 -22 21 -28
19 -312 l-3 -289 -80 0 -80 0 -5 65 -5 65 -355 0 -355 0 -5 -65 -5 -65 -80 0
-80 0 -3 289 c-2 284 -2 290 19 312 12 13 36 24 53 26 l31 3 5 125 c9 220 11
221 435 217 265 -2 304 -4 332 -20z"/>
<path d="M307 1069 c-36 -21 -47 -63 -47 -179 l0 -110 30 0 c19 0 40 -9 55
-25 24 -23 25 -31 25 -135 l0 -110 270 0 270 0 0 110 c0 104 1 112 25 135 15
16 36 25 55 25 l30 0 0 110 c0 117 -12 159 -49 180 -26 14 -640 13 -664 -1z" fill="#cc9936"/>
<path d="M162 728 c-9 -9 -12 -68 -12 -205 l0 -193 90 0 90 0 0 186 c0 109 -4
193 -10 205 -9 16 -22 19 -78 19 -40 0 -73 -5 -80 -12z" fill="#cc9936"/>
<path d="M960 721 c-6 -12 -10 -96 -10 -205 l0 -186 90 0 90 0 0 193 c0 137
-3 196 -12 205 -7 7 -40 12 -80 12 -56 0 -69 -3 -78 -19z" fill="#cc9936"/>
<path d="M370 395 l0 -65 270 0 270 0 0 65 0 65 -270 0 -270 0 0 -65z" fill="#cc9936"/>
<path d="M150 246 l0 -46 46 0 45 0 -3 43 c-3 42 -3 42 -45 45 l-43 3 0 -45z" fill="#cc9936"/>
<path d="M1047 283 c-4 -3 -7 -24 -7 -45 l0 -38 45 0 45 0 0 45 0 45 -38 0
c-21 0 -42 -3 -45 -7z" fill="#cc9936"/>
</g>
</svg>
