<?xml version="1.0" standalone="no"?>
<!DOCTYPE svg PUBLIC "-//W3C//DTD SVG 20010904//EN"
 "http://www.w3.org/TR/2001/REC-SVG-20010904/DTD/svg10.dtd">
<svg version="1.0" xmlns="http://www.w3.org/2000/svg"
 width="128.000000pt" height="128.000000pt" viewBox="0 0 128.000000 128.000000"
 preserveAspectRatio="xMidYMid meet">

<g transform="translate(0.000000,128.000000) scale(0.100000,-0.100000)"
fill="#000000" stroke="none">
<path d="M0 640 l0 -640 640 0 640 0 0 640 0 640 -640 0 -640 0 0 -640z m988
467 c57 -31 72 -68 72 -179 l0 -98 -37 -1 c-60 0 -105 -21 -130 -58 -20 -29
-23 -47 -23 -127 l0 -94 -230 0 -230 0 0 94 c0 80 -3 98 -23 127 -25 37 -70
58 -129 58 l-38 1 0 95 c0 128 17 162 97 191 30 11 104 13 338 11 267 -2 304
-4 333 -20z m-643 -352 c24 -23 25 -31 25 -135 l0 -110 270 0 270 0 0 110 c0
104 1 112 25 135 22 23 32 25 108 25 75 0 86 -2 105 -23 22 -23 22 -27 20
-313 l-3 -289 -80 0 -80 0 -5 65 -5 65 -355 0 -355 0 -5 -65 -5 -65 -80 0 -80
0 -3 289 c-2 286 -2 290 20 313 19 21 30 23 105 23 76 0 86 -2 108 -25z"/>
</g>
</svg>
